<mxfile host="app.diagrams.net" modified="2024-01-26T14:45:12.579Z" agent="Mozilla/5.0 (Windows NT 10.0; Win64; x64) AppleWebKit/537.36 (KHTML, like Gecko) Chrome/120.0.0.0 Safari/537.36" etag="vIJjDd2NVQkojTv8Bblu" version="22.1.20" type="github">
  <diagram name="Page-1" id="5f0bae14-7c28-e335-631c-24af17079c00">
    <mxGraphModel dx="1434" dy="792" grid="1" gridSize="10" guides="1" tooltips="1" connect="1" arrows="1" fold="1" page="1" pageScale="1" pageWidth="1100" pageHeight="850" background="none" math="0" shadow="0">
      <root>
        <mxCell id="0" />
        <mxCell id="1" parent="0" />
        <mxCell id="39150e848f15840c-1" value="Web" style="verticalAlign=top;align=left;spacingTop=8;spacingLeft=2;spacingRight=12;shape=cube;size=10;direction=south;fontStyle=4;html=1;rounded=0;shadow=0;comic=0;labelBackgroundColor=none;strokeWidth=1;fontFamily=Verdana;fontSize=12;fillColor=#dae8fc;strokeColor=#6c8ebf;" parent="1" vertex="1">
          <mxGeometry x="40" y="30" width="230" height="100" as="geometry" />
        </mxCell>
        <mxCell id="39150e848f15840c-2" value="Mobile Apps" style="verticalAlign=top;align=left;spacingTop=8;spacingLeft=2;spacingRight=12;shape=cube;size=10;direction=south;fontStyle=4;html=1;rounded=0;shadow=0;comic=0;labelBackgroundColor=none;strokeWidth=1;fontFamily=Verdana;fontSize=12;fillColor=#e1d5e7;strokeColor=#9673a6;" parent="1" vertex="1">
          <mxGeometry x="560" y="5" width="330" height="150" as="geometry" />
        </mxCell>
        <mxCell id="39150e848f15840c-6" value="" style="ellipse;whiteSpace=wrap;html=1;rounded=0;shadow=0;comic=0;labelBackgroundColor=none;strokeWidth=1;fontFamily=Verdana;fontSize=12;align=center;" parent="1" vertex="1">
          <mxGeometry x="130" y="90" width="20" height="20" as="geometry" />
        </mxCell>
        <mxCell id="39150e848f15840c-9" value="" style="ellipse;whiteSpace=wrap;html=1;rounded=0;shadow=0;comic=0;labelBackgroundColor=none;strokeWidth=1;fontFamily=Verdana;fontSize=12;align=center;" parent="1" vertex="1">
          <mxGeometry x="590" y="120" width="20" height="20" as="geometry" />
        </mxCell>
        <mxCell id="30EmhshtBAR26avfVBTr-1" value="Hasura" style="verticalAlign=top;align=left;spacingTop=8;spacingLeft=2;spacingRight=12;shape=cube;size=10;direction=south;fontStyle=4;html=1;rounded=0;shadow=0;comic=0;labelBackgroundColor=none;strokeWidth=1;fontFamily=Verdana;fontSize=12;fillColor=#d5e8d4;strokeColor=#82b366;" parent="1" vertex="1">
          <mxGeometry x="122" y="463" width="260" height="70" as="geometry" />
        </mxCell>
        <mxCell id="30EmhshtBAR26avfVBTr-3" value="DB (Postgres)" style="shape=datastore;whiteSpace=wrap;html=1;fillColor=#6d8764;fontColor=#ffffff;strokeColor=#3A5431;" parent="1" vertex="1">
          <mxGeometry x="209.06" y="590" width="70" height="60" as="geometry" />
        </mxCell>
        <mxCell id="30EmhshtBAR26avfVBTr-8" value="" style="group" parent="1" vertex="1" connectable="0">
          <mxGeometry x="110" y="230" width="348" height="160" as="geometry" />
        </mxCell>
        <mxCell id="39150e848f15840c-3" value="&lt;font color=&quot;#1a1a1a&quot;&gt;Backend&lt;/font&gt;" style="verticalAlign=top;align=left;spacingTop=8;spacingLeft=2;spacingRight=12;shape=cube;size=10;direction=south;fontStyle=4;html=1;rounded=0;shadow=0;comic=0;labelBackgroundColor=none;strokeWidth=1;fontFamily=Verdana;fontSize=12;fillColor=#60a917;strokeColor=#2D7600;fontColor=#ffffff;" parent="30EmhshtBAR26avfVBTr-8" vertex="1">
          <mxGeometry width="348" height="160" as="geometry" />
        </mxCell>
        <mxCell id="39150e848f15840c-10" value="API (BE)" style="shape=component;align=left;spacingLeft=36;rounded=0;shadow=0;comic=0;labelBackgroundColor=none;strokeWidth=1;fontFamily=Verdana;fontSize=12;html=1;" parent="30EmhshtBAR26avfVBTr-8" vertex="1">
          <mxGeometry x="5.31" y="48" width="160.62" height="92" as="geometry" />
        </mxCell>
        <mxCell id="DGS6xpSLE92FE0c8NjT5-3" value="" style="group" vertex="1" connectable="0" parent="30EmhshtBAR26avfVBTr-8">
          <mxGeometry x="260" y="44.69" width="65" height="80.31" as="geometry" />
        </mxCell>
        <mxCell id="DGS6xpSLE92FE0c8NjT5-1" value="" style="label;whiteSpace=wrap;html=1;align=center;verticalAlign=bottom;spacingLeft=0;spacingBottom=4;imageAlign=center;imageVerticalAlign=top;image=img/clipart/Gear_128x128.png" vertex="1" parent="DGS6xpSLE92FE0c8NjT5-3">
          <mxGeometry x="12.19" width="40.63" height="50" as="geometry" />
        </mxCell>
        <mxCell id="DGS6xpSLE92FE0c8NjT5-2" value="&lt;b&gt;Producer&lt;/b&gt;" style="text;html=1;align=center;verticalAlign=middle;resizable=0;points=[];autosize=1;strokeColor=none;fillColor=none;" vertex="1" parent="DGS6xpSLE92FE0c8NjT5-3">
          <mxGeometry y="52.61689655172414" width="80" height="30" as="geometry" />
        </mxCell>
        <mxCell id="DGS6xpSLE92FE0c8NjT5-9" value="" style="group" vertex="1" connectable="0" parent="30EmhshtBAR26avfVBTr-8">
          <mxGeometry x="180" y="47.69" width="80" height="78.31413793103451" as="geometry" />
        </mxCell>
        <mxCell id="DGS6xpSLE92FE0c8NjT5-6" value="" style="label;whiteSpace=wrap;html=1;align=center;verticalAlign=bottom;spacingLeft=0;spacingBottom=4;imageAlign=center;imageVerticalAlign=top;image=img/clipart/Gear_128x128.png" vertex="1" parent="DGS6xpSLE92FE0c8NjT5-9">
          <mxGeometry x="19.690000000000055" width="40.63" height="48.31" as="geometry" />
        </mxCell>
        <mxCell id="DGS6xpSLE92FE0c8NjT5-7" value="&lt;b&gt;Consumer&lt;/b&gt;" style="text;html=1;align=center;verticalAlign=middle;resizable=0;points=[];autosize=1;strokeColor=none;fillColor=none;" vertex="1" parent="DGS6xpSLE92FE0c8NjT5-9">
          <mxGeometry y="48.31413793103451" width="80" height="30" as="geometry" />
        </mxCell>
        <mxCell id="30EmhshtBAR26avfVBTr-5" value="" style="shape=singleArrow;direction=north;whiteSpace=wrap;html=1;fillColor=#e3c800;fontColor=#000000;strokeColor=#B09500;" parent="1" vertex="1">
          <mxGeometry x="200" y="390" width="20" height="70" as="geometry" />
        </mxCell>
        <mxCell id="30EmhshtBAR26avfVBTr-6" value="" style="shape=singleArrow;direction=south;whiteSpace=wrap;html=1;fillColor=#f0a30a;fontColor=#000000;strokeColor=#BD7000;" parent="1" vertex="1">
          <mxGeometry x="270" y="390" width="20" height="70" as="geometry" />
        </mxCell>
        <mxCell id="30EmhshtBAR26avfVBTr-19" value="" style="shape=doubleArrow;whiteSpace=wrap;html=1;fillColor=#f0a30a;fontColor=#000000;strokeColor=#BD7000;" parent="1" vertex="1">
          <mxGeometry x="382" y="495" width="70" height="14" as="geometry" />
        </mxCell>
        <mxCell id="30EmhshtBAR26avfVBTr-23" value="" style="shape=doubleArrow;whiteSpace=wrap;html=1;fillColor=#f0a30a;fontColor=#000000;strokeColor=#BD7000;rotation=90;" parent="1" vertex="1">
          <mxGeometry x="218.12" y="555" width="51.88" height="12.5" as="geometry" />
        </mxCell>
        <mxCell id="30EmhshtBAR26avfVBTr-26" value="&lt;b&gt;USSD&lt;/b&gt;" style="shape=ext;double=1;rounded=1;whiteSpace=wrap;html=1;fillColor=#ffe6cc;strokeColor=#d79b00;" parent="1" vertex="1">
          <mxGeometry x="707" y="468" width="120" height="60" as="geometry" />
        </mxCell>
        <mxCell id="30EmhshtBAR26avfVBTr-27" value="" style="shape=doubleArrow;whiteSpace=wrap;html=1;fillColor=#f0a30a;fontColor=#000000;strokeColor=#BD7000;" parent="1" vertex="1">
          <mxGeometry x="637" y="495" width="70" height="14" as="geometry" />
        </mxCell>
        <mxCell id="30EmhshtBAR26avfVBTr-31" value="Kafka" style="label;whiteSpace=wrap;html=1;align=center;verticalAlign=bottom;spacingLeft=0;spacingBottom=4;imageAlign=center;imageVerticalAlign=top;image=img/clipart/Gear_128x128.png" parent="1" vertex="1">
          <mxGeometry x="330.00000000000006" y="40" width="120" height="80" as="geometry" />
        </mxCell>
        <mxCell id="30EmhshtBAR26avfVBTr-34" value="" style="endArrow=classic;startArrow=classic;html=1;rounded=0;entryX=0.99;entryY=0.887;entryDx=0;entryDy=0;entryPerimeter=0;exitX=0.486;exitY=1.008;exitDx=0;exitDy=0;exitPerimeter=0;" parent="1" source="30EmhshtBAR26avfVBTr-1" target="39150e848f15840c-1" edge="1">
          <mxGeometry width="50" height="50" relative="1" as="geometry">
            <mxPoint x="74" y="480" as="sourcePoint" />
            <mxPoint x="50" y="250" as="targetPoint" />
            <Array as="points">
              <mxPoint x="70" y="497" />
            </Array>
          </mxGeometry>
        </mxCell>
        <mxCell id="39150e848f15840c-11" style="edgeStyle=none;rounded=0;html=1;dashed=1;labelBackgroundColor=none;startArrow=none;startFill=0;startSize=8;endArrow=open;endFill=0;endSize=16;fontFamily=Verdana;fontSize=12;" parent="1" source="39150e848f15840c-10" target="39150e848f15840c-6" edge="1">
          <mxGeometry relative="1" as="geometry" />
        </mxCell>
        <mxCell id="39150e848f15840c-12" style="edgeStyle=none;rounded=0;html=1;dashed=1;labelBackgroundColor=none;startArrow=none;startFill=0;startSize=8;endArrow=open;endFill=0;endSize=16;fontFamily=Verdana;fontSize=12;" parent="1" source="39150e848f15840c-3" target="39150e848f15840c-9" edge="1">
          <mxGeometry relative="1" as="geometry" />
        </mxCell>
        <mxCell id="DGS6xpSLE92FE0c8NjT5-10" style="edgeStyle=none;rounded=0;html=1;dashed=1;labelBackgroundColor=none;startArrow=none;startFill=0;startSize=8;endArrow=open;endFill=0;endSize=16;fontFamily=Verdana;fontSize=12;entryX=0.308;entryY=1.013;entryDx=0;entryDy=0;entryPerimeter=0;" edge="1" parent="1" source="DGS6xpSLE92FE0c8NjT5-6" target="30EmhshtBAR26avfVBTr-31">
          <mxGeometry relative="1" as="geometry">
            <mxPoint x="305.32" y="258" as="sourcePoint" />
            <mxPoint x="340.32" y="100" as="targetPoint" />
          </mxGeometry>
        </mxCell>
        <mxCell id="DGS6xpSLE92FE0c8NjT5-11" style="edgeStyle=none;rounded=0;html=1;dashed=1;labelBackgroundColor=none;startArrow=none;startFill=0;startSize=8;endArrow=open;endFill=0;endSize=16;fontFamily=Verdana;fontSize=12;exitX=0.5;exitY=1;exitDx=0;exitDy=0;" edge="1" parent="1" source="30EmhshtBAR26avfVBTr-31">
          <mxGeometry relative="1" as="geometry">
            <mxPoint x="520" y="280" as="sourcePoint" />
            <mxPoint x="410" y="270" as="targetPoint" />
          </mxGeometry>
        </mxCell>
        <mxCell id="DGS6xpSLE92FE0c8NjT5-17" value="" style="endArrow=classic;startArrow=classic;html=1;rounded=0;exitX=-0.029;exitY=0.212;exitDx=0;exitDy=0;exitPerimeter=0;entryX=0.993;entryY=0.636;entryDx=0;entryDy=0;entryPerimeter=0;" edge="1" parent="1" target="39150e848f15840c-2">
          <mxGeometry width="50" height="50" relative="1" as="geometry">
            <mxPoint x="326.8800000000001" y="460" as="sourcePoint" />
            <mxPoint x="725" y="154.03" as="targetPoint" />
            <Array as="points">
              <mxPoint x="327" y="420" />
              <mxPoint x="680" y="420" />
            </Array>
          </mxGeometry>
        </mxCell>
        <mxCell id="DGS6xpSLE92FE0c8NjT5-19" value="" style="group" vertex="1" connectable="0" parent="1">
          <mxGeometry x="452" y="463" width="185" height="70" as="geometry" />
        </mxCell>
        <mxCell id="30EmhshtBAR26avfVBTr-7" value="Public - API" style="verticalAlign=top;align=left;spacingTop=8;spacingLeft=2;spacingRight=12;shape=cube;size=10;direction=south;fontStyle=4;html=1;rounded=0;shadow=0;comic=0;labelBackgroundColor=none;strokeWidth=1;fontFamily=Verdana;fontSize=12;fillColor=#d5e8d4;strokeColor=#82b366;" parent="DGS6xpSLE92FE0c8NjT5-19" vertex="1">
          <mxGeometry width="185" height="70" as="geometry" />
        </mxCell>
        <mxCell id="30EmhshtBAR26avfVBTr-9" value="&lt;font style=&quot;font-size: 14px;&quot;&gt;Public-API&lt;/font&gt;" style="text;strokeColor=none;fillColor=none;html=1;fontSize=24;fontStyle=1;verticalAlign=middle;align=center;" parent="DGS6xpSLE92FE0c8NjT5-19" vertex="1">
          <mxGeometry x="53.210000000000036" y="31.998571428571438" width="78.57142857142858" height="34.285714285714285" as="geometry" />
        </mxCell>
      </root>
    </mxGraphModel>
  </diagram>
</mxfile>
